<?xml version="1.0" encoding="UTF-8"?>
<svg xmlns="http://www.w3.org/2000/svg" version="1.1" viewBox="0 0 170 100">
  <!-- Generator: Adobe Illustrator 29.8.1, SVG Export Plug-In . SVG Version: 2.1.1 Build 2)  -->
  <g id="VuMark-ClearSpace">
    <rect width="170" height="100" style="fill: #fff;"/>
  </g>
  <g id="VuMark-Border">
    <rect x="5" y="5.358" width="160" height="8" style="fill: #231815;"/>
    <rect x="5" y="87.432" width="160" height="8" style="fill: #231815;"/>
    <rect x="156" y="11.932" width="9" height="76" style="fill: #231815;"/>
    <rect x="5" y="12.932" width="8" height="75" style="fill: #231815;"/>
  </g>
  <g id="VuMark-DarkElements">
    <polygon id="d0008" points="16.866 6.932 21.866 6.932 21.866 11.932 16.866 11.932 16.866 6.932" style="fill: #040000;"/>
    <polygon id="d0009" points="22.024 6.932 27.024 6.932 27.024 11.932 22.024 11.932 22.024 6.932" style="fill: #040000;"/>
    <polygon id="d0010" points="27.182 6.932 32.182 6.932 32.182 11.932 27.182 11.932 27.182 6.932" style="fill: #040000;"/>
    <polygon id="d0011" points="32.339 6.932 37.339 6.932 37.339 11.932 32.339 11.932 32.339 6.932" style="fill: #040000;"/>
    <polygon id="d0012" points="37.497 6.932 42.497 6.932 42.497 11.932 37.497 11.932 37.497 6.932" style="fill: #040000;"/>
    <polygon id="d0013" points="42.655 6.932 47.655 6.932 47.655 11.932 42.655 11.932 42.655 6.932" style="fill: #040000;"/>
    <polygon id="d0014" points="47.812 6.932 52.812 6.932 52.812 11.932 47.812 11.932 47.812 6.932" style="fill: #040000;"/>
    <polygon id="d0015" points="52.97 6.932 57.97 6.932 57.97 11.932 52.97 11.932 52.97 6.932" style="fill: #040000;"/>
    <polygon id="d0016" points="58.128 6.932 63.128 6.932 63.128 11.932 58.128 11.932 58.128 6.932" style="fill: #040000;"/>
    <polygon id="d0017" points="63.285 6.932 68.285 6.932 68.285 11.932 63.285 11.932 63.285 6.932" style="fill: #040000;"/>
    <polygon id="d0032" points="157.826 14.657 162.826 14.657 162.826 19.657 157.826 19.657 157.826 14.657" style="fill: #040000;"/>
    <polygon id="d0033" points="157.826 19.657 162.826 19.657 162.826 24.657 157.826 24.657 157.826 19.657" style="fill: #040000;"/>
    <polygon id="d0030" points="157.826 24.657 162.826 24.657 162.826 29.657 157.826 29.657 157.826 24.657" style="fill: #040000;"/>
    <polygon id="d0029" points="157.826 29.657 162.826 29.657 162.826 34.657 157.826 34.657 157.826 29.657" style="fill: #040000;"/>
    <polygon id="d0028" points="157.826 34.657 162.826 34.657 162.826 39.657 157.826 39.657 157.826 34.657" style="fill: #040000;"/>
    <polygon id="d0031" points="157.826 39.657 162.826 39.657 162.826 44.657 157.826 44.657 157.826 39.657" style="fill: #040000;"/>
    <polygon id="d0026" points="157.826 44.657 162.826 44.657 162.826 49.657 157.826 49.657 157.826 44.657" style="fill: #040000;"/>
    <polygon id="d0027" points="157.826 49.657 162.826 49.657 162.826 54.657 157.826 54.657 157.826 49.657" style="fill: #040000;"/>
    <polygon id="d0025" points="150.89 88.932 155.89 88.932 155.89 93.932 150.89 93.932 150.89 88.932" style="fill: #040000;"/>
    <polygon id="d0024" points="145.89 88.932 150.89 88.932 150.89 93.932 145.89 93.932 145.89 88.932" style="fill: #040000;"/>
    <polygon id="d0023" points="140.89 88.932 145.89 88.932 145.89 93.932 140.89 93.932 140.89 88.932" style="fill: #040000;"/>
    <polygon id="d0022" points="135.89 88.932 140.89 88.932 140.89 93.932 135.89 93.932 135.89 88.932" style="fill: #040000;"/>
    <polygon id="d0021" points="130.89 88.932 135.89 88.932 135.89 93.932 130.89 93.932 130.89 88.932" style="fill: #040000;"/>
    <polygon id="d0020" points="125.89 88.932 130.89 88.932 130.89 93.932 125.89 93.932 125.89 88.932" style="fill: #040000;"/>
    <polygon id="d0019" points="120.89 88.932 125.89 88.932 125.89 93.932 120.89 93.932 120.89 88.932" style="fill: #040000;"/>
    <polygon id="d0018" points="115.89 88.932 120.89 88.932 120.89 93.932 115.89 93.932 115.89 88.932" style="fill: #040000;"/>
    <polygon id="d0003" points="6.5 82.432 11.5 82.432 11.5 87.432 6.5 87.432 6.5 82.432" style="fill: #040000;"/>
    <polygon id="d0000" points="6.5 77.432 11.5 77.432 11.5 82.432 6.5 82.432 6.5 77.432" style="fill: #040000;"/>
    <polygon id="d0001" points="6.5 72.432 11.5 72.432 11.5 77.432 6.5 77.432 6.5 72.432" style="fill: #040000;"/>
    <polygon id="d0002" points="6.5 67.432 11.5 67.432 11.5 72.432 6.5 72.432 6.5 67.432" style="fill: #040000;"/>
    <polygon id="d0007" points="6.5 62.432 11.5 62.432 11.5 67.432 6.5 67.432 6.5 62.432" style="fill: #040000;"/>
    <polygon id="d0004" points="6.5 57.432 11.5 57.432 11.5 62.432 6.5 62.432 6.5 57.432" style="fill: #040000;"/>
    <polygon id="d0005" points="6.5 52.432 11.5 52.432 11.5 57.432 6.5 57.432 6.5 52.432" style="fill: #040000;"/>
    <polygon id="d0006" points="6.5 47.432 11.5 47.432 11.5 52.432 6.5 52.432 6.5 47.432" style="fill: #040000;"/>
  </g>
  <g id="VuMark-BrightElements">
    <polygon id="b0008" points="16.866 6.932 21.866 6.932 21.866 11.932 16.866 11.932 16.866 6.932" style="fill: #fff;"/>
    <polygon id="b0009" points="22.024 6.932 27.024 6.932 27.024 11.932 22.024 11.932 22.024 6.932" style="fill: #fff;"/>
    <polygon id="b0010" points="27.182 6.932 32.182 6.932 32.182 11.932 27.182 11.932 27.182 6.932" style="fill: #fff;"/>
    <polygon id="b0011" points="32.339 6.932 37.339 6.932 37.339 11.932 32.339 11.932 32.339 6.932" style="fill: #fff;"/>
    <polygon id="b0012" points="37.497 6.932 42.497 6.932 42.497 11.932 37.497 11.932 37.497 6.932" style="fill: #fff;"/>
    <polygon id="b0013" points="42.655 6.932 47.655 6.932 47.655 11.932 42.655 11.932 42.655 6.932" style="fill: #fff;"/>
    <polygon id="b0014" points="47.812 6.932 52.812 6.932 52.812 11.932 47.812 11.932 47.812 6.932" style="fill: #fff;"/>
    <polygon id="b0015" points="52.97 6.932 57.97 6.932 57.97 11.932 52.97 11.932 52.97 6.932" style="fill: #fff;"/>
    <polygon id="b0016" points="58.128 6.932 63.128 6.932 63.128 11.932 58.128 11.932 58.128 6.932" style="fill: #fff;"/>
    <polygon id="b0017" points="63.285 6.932 68.285 6.932 68.285 11.932 63.285 11.932 63.285 6.932" style="fill: #fff;"/>
    <polygon id="b0032" points="157.826 14.657 162.826 14.657 162.826 19.657 157.826 19.657 157.826 14.657" style="fill: #fff;"/>
    <polygon id="b0033" points="157.826 19.657 162.826 19.657 162.826 24.657 157.826 24.657 157.826 19.657" style="fill: #fff;"/>
    <polygon id="b0030" points="157.826 24.657 162.826 24.657 162.826 29.657 157.826 29.657 157.826 24.657" style="fill: #fff;"/>
    <polygon id="b0029" points="157.826 29.657 162.826 29.657 162.826 34.657 157.826 34.657 157.826 29.657" style="fill: #fff;"/>
    <polygon id="b0028" points="157.826 34.657 162.826 34.657 162.826 39.657 157.826 39.657 157.826 34.657" style="fill: #fff;"/>
    <polygon id="b0031" points="157.826 39.657 162.826 39.657 162.826 44.657 157.826 44.657 157.826 39.657" style="fill: #fff;"/>
    <polygon id="b0026" points="157.826 44.657 162.826 44.657 162.826 49.657 157.826 49.657 157.826 44.657" style="fill: #fff;"/>
    <polygon id="b0027" points="157.826 49.657 162.826 49.657 162.826 54.657 157.826 54.657 157.826 49.657" style="fill: #fff;"/>
    <polygon id="b0025" points="150.89 88.932 155.89 88.932 155.89 93.932 150.89 93.932 150.89 88.932" style="fill: #fff;"/>
    <polygon id="b0024" points="145.89 88.932 150.89 88.932 150.89 93.932 145.89 93.932 145.89 88.932" style="fill: #fff;"/>
    <polygon id="b0023" points="140.89 88.932 145.89 88.932 145.89 93.932 140.89 93.932 140.89 88.932" style="fill: #fff;"/>
    <polygon id="b0022" points="135.89 88.932 140.89 88.932 140.89 93.932 135.89 93.932 135.89 88.932" style="fill: #fff;"/>
    <polygon id="b0021" points="130.89 88.932 135.89 88.932 135.89 93.932 130.89 93.932 130.89 88.932" style="fill: #fff;"/>
    <polygon id="b0020" points="125.89 88.932 130.89 88.932 130.89 93.932 125.89 93.932 125.89 88.932" style="fill: #fff;"/>
    <polygon id="b0019" points="120.89 88.932 125.89 88.932 125.89 93.932 120.89 93.932 120.89 88.932" style="fill: #fff;"/>
    <polygon id="b0018" points="115.89 88.932 120.89 88.932 120.89 93.932 115.89 93.932 115.89 88.932" style="fill: #fff;"/>
    <polygon id="b0003" points="6.5 82.432 11.5 82.432 11.5 87.432 6.5 87.432 6.5 82.432" style="fill: #fff;"/>
    <polygon id="b0000" points="6.5 77.432 11.5 77.432 11.5 82.432 6.5 82.432 6.5 77.432" style="fill: #fff;"/>
    <polygon id="b0001" points="6.5 72.432 11.5 72.432 11.5 77.432 6.5 77.432 6.5 72.432" style="fill: #fff;"/>
    <polygon id="b0002" points="6.5 67.432 11.5 67.432 11.5 72.432 6.5 72.432 6.5 67.432" style="fill: #fff;"/>
    <polygon id="b0007" points="6.5 62.432 11.5 62.432 11.5 67.432 6.5 67.432 6.5 62.432" style="fill: #fff;"/>
    <polygon id="b0004" points="6.5 57.432 11.5 57.432 11.5 62.432 6.5 62.432 6.5 57.432" style="fill: #fff;"/>
    <polygon id="b0005" points="6.5 52.432 11.5 52.432 11.5 57.432 6.5 57.432 6.5 52.432" style="fill: #fff;"/>
    <polygon id="b0006" points="6.5 47.432 11.5 47.432 11.5 52.432 6.5 52.432 6.5 47.432" style="fill: #fff;"/>
  </g>
  <g id="VuMark-Origin">
    <circle id="VuMark_Origin_Locator" cx="85" cy="50.432" r="2" style="fill: none; stroke: #898989; stroke-miterlimit: 10; stroke-width: 2px;"/>
  </g>
  <g id="VuMark-Contour">
    <polygon id="contour" points="2 2.432 168 2.432 168 98.432 2 98.432 2 2.432" style="fill: none; stroke: #e4007f;"/>
  </g>
  <g id="VuMark-AsymmetryMarker">
    <rect x="157" y="5.932" width="7.5" height="7.5" style="fill: #fff;"/>
  </g>
  <g id="VuMark-Feedback">
    <rect x="-3.01" y="-2.578" width="176.02" height="106.02" style="fill: none; stroke: #e4007f;"/>
    <circle id="c0007" cx="9" cy="64.932" r="2.505" style="fill: none; stroke: #e4007f; stroke-miterlimit: 10; stroke-width: .75px;"/>
    <circle id="c0001" cx="9" cy="74.932" r="2.505" style="fill: none; stroke: #e4007f; stroke-miterlimit: 10; stroke-width: .75px;"/>
    <circle id="c0000" cx="9" cy="79.932" r="2.505" style="fill: none; stroke: #e4007f; stroke-miterlimit: 10; stroke-width: .75px;"/>
    <circle id="c0003" cx="9" cy="84.932" r="2.505" style="fill: none; stroke: #e4007f; stroke-miterlimit: 10; stroke-width: .75px;"/>
    <circle id="c0005" cx="9" cy="54.932" r="2.505" style="fill: none; stroke: #e4007f; stroke-miterlimit: 10; stroke-width: .75px;"/>
    <circle id="c0006" cx="9" cy="49.932" r="2.505" style="fill: none; stroke: #e4007f; stroke-miterlimit: 10; stroke-width: .75px;"/>
    <circle id="c0002" cx="9" cy="69.932" r="2.505" style="fill: none; stroke: #e4007f; stroke-miterlimit: 10; stroke-width: .75px;"/>
    <circle id="c0004" cx="9" cy="59.932" r="2.505" style="fill: none; stroke: #e4007f; stroke-miterlimit: 10; stroke-width: .75px;"/>
    <circle id="c0008" cx="19.366" cy="9.432" r="2.505" style="fill: none; stroke: #e4007f; stroke-miterlimit: 10; stroke-width: .75px;"/>
    <circle id="c0009" cx="24.524" cy="9.432" r="2.505" style="fill: none; stroke: #e4007f; stroke-miterlimit: 10; stroke-width: .75px;"/>
    <circle id="c0010" cx="29.682" cy="9.432" r="2.505" style="fill: none; stroke: #e4007f; stroke-miterlimit: 10; stroke-width: .75px;"/>
    <circle id="c0011" cx="34.839" cy="9.432" r="2.505" style="fill: none; stroke: #e4007f; stroke-miterlimit: 10; stroke-width: .75px;"/>
    <circle id="c0012" cx="39.997" cy="9.432" r="2.505" style="fill: none; stroke: #e4007f; stroke-miterlimit: 10; stroke-width: .75px;"/>
    <circle id="c0013" cx="45.155" cy="9.432" r="2.505" style="fill: none; stroke: #e4007f; stroke-miterlimit: 10; stroke-width: .75px;"/>
    <circle id="c0014" cx="50.312" cy="9.432" r="2.505" style="fill: none; stroke: #e4007f; stroke-miterlimit: 10; stroke-width: .75px;"/>
    <circle id="c0015" cx="55.47" cy="9.432" r="2.505" style="fill: none; stroke: #e4007f; stroke-miterlimit: 10; stroke-width: .75px;"/>
    <circle id="c0016" cx="60.628" cy="9.432" r="2.505" style="fill: none; stroke: #e4007f; stroke-miterlimit: 10; stroke-width: .75px;"/>
    <circle id="c0017" cx="65.785" cy="9.432" r="2.505" style="fill: none; stroke: #e4007f; stroke-miterlimit: 10; stroke-width: .75px;"/>
    <circle id="c0018" cx="118.39" cy="91.432" r="2.505" style="fill: none; stroke: #e4007f; stroke-miterlimit: 10; stroke-width: .75px;"/>
    <circle id="c0019" cx="123.39" cy="91.432" r="2.505" style="fill: none; stroke: #e4007f; stroke-miterlimit: 10; stroke-width: .75px;"/>
    <circle id="c0020" cx="128.39" cy="91.432" r="2.505" style="fill: none; stroke: #e4007f; stroke-miterlimit: 10; stroke-width: .75px;"/>
    <circle id="c0021" cx="133.39" cy="91.432" r="2.505" style="fill: none; stroke: #e4007f; stroke-miterlimit: 10; stroke-width: .75px;"/>
    <circle id="c0022" cx="138.39" cy="91.432" r="2.505" style="fill: none; stroke: #e4007f; stroke-miterlimit: 10; stroke-width: .75px;"/>
    <circle id="c0023" cx="143.39" cy="91.432" r="2.505" style="fill: none; stroke: #e4007f; stroke-miterlimit: 10; stroke-width: .75px;"/>
    <circle id="c0024" cx="148.39" cy="91.432" r="2.505" style="fill: none; stroke: #e4007f; stroke-miterlimit: 10; stroke-width: .75px;"/>
    <circle id="c0025" cx="153.39" cy="91.432" r="2.505" style="fill: none; stroke: #e4007f; stroke-miterlimit: 10; stroke-width: .75px;"/>
    <circle id="c0027" cx="160.326" cy="52.157" r="2.505" style="fill: none; stroke: #e4007f; stroke-miterlimit: 10; stroke-width: .75px;"/>
    <circle id="c0026" cx="160.326" cy="47.157" r="2.505" style="fill: none; stroke: #e4007f; stroke-miterlimit: 10; stroke-width: .75px;"/>
    <circle id="c0031" cx="160.326" cy="42.157" r="2.505" style="fill: none; stroke: #e4007f; stroke-miterlimit: 10; stroke-width: .75px;"/>
    <circle id="c0028" cx="160.326" cy="37.157" r="2.505" style="fill: none; stroke: #e4007f; stroke-miterlimit: 10; stroke-width: .75px;"/>
    <circle id="c0032" cx="160.326" cy="17.157" r="2.505" style="fill: none; stroke: #e4007f; stroke-miterlimit: 10; stroke-width: .75px;"/>
    <circle id="c0033" cx="160.326" cy="22.157" r="2.505" style="fill: none; stroke: #e4007f; stroke-miterlimit: 10; stroke-width: .75px;"/>
    <circle id="c0030" cx="160.326" cy="27.157" r="2.505" style="fill: none; stroke: #e4007f; stroke-miterlimit: 10; stroke-width: .75px;"/>
    <circle id="c0029" cx="160.326" cy="32.157" r="2.505" style="fill: none; stroke: #e4007f; stroke-miterlimit: 10; stroke-width: .75px;"/>
    <rect x="-3.01" y="-2.578" width="176.02" height="106.02" style="fill: none; stroke: #e4007f;"/>
    <path id="MinimumContourClearSpace" d="M2,2.432h166v96H2V2.432ZM7.01,93.422V7.441h155.98v85.98H7.01Z" style="fill: #e4007f; fill-rule: evenodd; opacity: .5;"/>
  </g>
  <g id="VuMark-Description">
    <g id="VuMark:Vumark_x5F_aaa999">
      <path d="M-320.852-289.147l-3.142,9.139h-1.056l-2.89-9.127h1.079l1.403,4.581c.384,1.235.72,2.387.959,3.454h.036c.24-1.067.612-2.254,1.02-3.454l1.523-4.593h1.067Z" style="fill: #231815;"/>
      <path d="M-314.768-281.747c0,.672.036,1.235.06,1.739h-.899l-.048-1.031h-.036c-.3.516-.972,1.175-2.087,1.175-.983,0-2.147-.563-2.147-2.818v-3.861h.996v3.682c0,1.271.372,2.159,1.463,2.159.779,0,1.703-.624,1.703-1.775v-4.065h.995v4.797Z" style="fill: #231815;"/>
      <path d="M-304.138-280.008h-.983l-.228-4.113c-.072-1.308-.167-2.999-.156-3.935h-.036c-.3,1.031-.671,2.159-1.115,3.431l-1.631,4.581h-.732l-1.523-4.485c-.444-1.319-.792-2.471-1.043-3.526h-.036c-.024,1.115-.096,2.627-.18,4.03l-.252,4.018h-.947l.635-9.139h1.224l1.607,4.642c.384,1.139.684,2.11.923,3.058h.036c.228-.923.54-1.883.948-3.058l1.667-4.642h1.247l.576,9.139Z" style="fill: #231815;"/>
      <path d="M-298.099-281.567c0,.54.012,1.104.096,1.56h-.911l-.096-.84h-.036c-.335.516-1.007.983-1.931.983-1.248,0-1.907-.911-1.907-1.858,0-1.571,1.368-2.423,3.79-2.411,0-.552,0-1.799-1.487-1.799-.563,0-1.151.156-1.595.468l-.24-.684c.528-.348,1.26-.552,1.991-.552,1.847,0,2.327,1.308,2.327,2.603v2.53ZM-299.083-283.402c-1.235,0-2.783.181-2.783,1.56,0,.84.528,1.211,1.127,1.211.972,0,1.655-.743,1.655-1.535v-1.235Z" style="fill: #231815;"/>
      <path d="M-293.19-285.705c-.108-.012-.216-.023-.36-.023-1.079,0-1.631,1.067-1.631,2.171v3.55h-.996v-4.581c0-.696-.012-1.332-.048-1.955h.875l.048,1.259h.036c.288-.815.971-1.403,1.775-1.403.108,0,.192.024.3.036v.947Z" style="fill: #231815;"/>
      <path d="M-286.952-280.008h-1.223l-2.255-3.227-.6.684v2.543h-.996v-9.595h.996v6.104h.024c.156-.228.384-.516.563-.731l1.955-2.314h1.199l-2.458,2.698,2.794,3.838Z" style="fill: #231815;"/>
      <path d="M-286.325-285.524c0-.444.288-.768.708-.768.432,0,.708.323.708.768,0,.432-.276.768-.708.768-.456,0-.708-.372-.708-.768ZM-286.325-280.619c0-.444.288-.768.708-.768.432,0,.708.323.708.768,0,.42-.276.755-.708.755-.456,0-.708-.359-.708-.755Z" style="fill: #231815;"/>
      <path d="M-268.893-289.147l-3.142,9.139h-1.056l-2.89-9.127h1.079l1.403,4.581c.384,1.235.72,2.387.959,3.454h.036c.24-1.067.612-2.254,1.02-3.454l1.523-4.593h1.067Z" style="fill: #231815;"/>
      <path d="M-262.809-281.747c0,.672.036,1.235.06,1.739h-.899l-.048-1.031h-.036c-.3.516-.972,1.175-2.087,1.175-.983,0-2.147-.563-2.147-2.818v-3.861h.996v3.682c0,1.271.372,2.159,1.463,2.159.779,0,1.703-.624,1.703-1.775v-4.065h.995v4.797Z" style="fill: #231815;"/>
      <path d="M-251.938-280.008h-.984v-3.778c0-1.271-.456-2.087-1.439-2.087-.804,0-1.535.756-1.535,1.752v4.113h-.983v-4.029c0-1.044-.444-1.836-1.367-1.836-.852,0-1.607.84-1.607,1.859v4.006h-.983v-4.857c0-.672-.024-1.151-.048-1.691h.875l.06,1.056h.036c.36-.636.959-1.199,1.991-1.199.852,0,1.511.527,1.787,1.308h.024c.432-.78,1.091-1.308,2.099-1.308.804,0,2.075.516,2.075,2.759v3.934Z" style="fill: #231815;"/>
      <path d="M-245.72-281.567c0,.54.012,1.104.096,1.56h-.911l-.096-.84h-.036c-.335.516-1.007.983-1.931.983-1.248,0-1.907-.911-1.907-1.858,0-1.571,1.368-2.423,3.79-2.411,0-.552,0-1.799-1.487-1.799-.563,0-1.151.156-1.595.468l-.24-.684c.528-.348,1.26-.552,1.991-.552,1.847,0,2.327,1.308,2.327,2.603v2.53ZM-246.704-283.402c-1.235,0-2.783.181-2.783,1.56,0,.84.528,1.211,1.127,1.211.972,0,1.655-.743,1.655-1.535v-1.235Z" style="fill: #231815;"/>
      <path d="M-240.812-285.705c-.108-.012-.216-.023-.36-.023-1.079,0-1.631,1.067-1.631,2.171v3.55h-.996v-4.581c0-.696-.012-1.332-.048-1.955h.875l.048,1.259h.036c.288-.815.971-1.403,1.775-1.403.108,0,.192.024.3.036v.947Z" style="fill: #231815;"/>
      <path d="M-234.573-280.008h-1.223l-2.255-3.227-.6.684v2.543h-.996v-9.595h.996v6.104h.024c.156-.228.384-.516.563-.731l1.955-2.314h1.199l-2.458,2.698,2.794,3.838Z" style="fill: #231815;"/>
      <path d="M-234.666-279.108h6.776v.6h-6.776v-.6Z" style="fill: #231815;"/>
      <path d="M-222.621-281.567c0,.54.012,1.104.096,1.56h-.911l-.096-.84h-.036c-.335.516-1.007.983-1.931.983-1.248,0-1.907-.911-1.907-1.858,0-1.571,1.368-2.423,3.79-2.411,0-.552,0-1.799-1.487-1.799-.563,0-1.151.156-1.595.468l-.24-.684c.528-.348,1.26-.552,1.991-.552,1.847,0,2.327,1.308,2.327,2.603v2.53ZM-223.604-283.402c-1.235,0-2.783.181-2.783,1.56,0,.84.528,1.211,1.127,1.211.972,0,1.655-.743,1.655-1.535v-1.235Z" style="fill: #231815;"/>
      <path d="M-216.417-281.567c0,.54.012,1.104.096,1.56h-.911l-.096-.84h-.036c-.335.516-1.007.983-1.931.983-1.248,0-1.907-.911-1.907-1.858,0-1.571,1.368-2.423,3.79-2.411,0-.552,0-1.799-1.487-1.799-.563,0-1.151.156-1.595.468l-.24-.684c.528-.348,1.26-.552,1.991-.552,1.847,0,2.327,1.308,2.327,2.603v2.53ZM-217.4-283.402c-1.235,0-2.783.181-2.783,1.56,0,.84.528,1.211,1.127,1.211.972,0,1.655-.743,1.655-1.535v-1.235Z" style="fill: #231815;"/>
      <path d="M-210.212-281.567c0,.54.012,1.104.096,1.56h-.911l-.096-.84h-.036c-.335.516-1.007.983-1.931.983-1.248,0-1.907-.911-1.907-1.858,0-1.571,1.368-2.423,3.79-2.411,0-.552,0-1.799-1.487-1.799-.563,0-1.151.156-1.595.468l-.24-.684c.528-.348,1.26-.552,1.991-.552,1.847,0,2.327,1.308,2.327,2.603v2.53ZM-211.196-283.402c-1.235,0-2.783.181-2.783,1.56,0,.84.528,1.211,1.127,1.211.972,0,1.655-.743,1.655-1.535v-1.235Z" style="fill: #231815;"/>
      <path d="M-204.164-284.254c-.492.624-1.188.996-2.063.996-1.535,0-2.483-1.199-2.483-2.723,0-1.644,1.08-3.154,2.843-3.154,1.679,0,2.747,1.463,2.747,3.754,0,2.986-1.511,5.062-3.814,5.421-.42.072-.804.096-1.067.084v-.827c.251.023.54-.013.923-.061,1.511-.216,2.65-1.438,2.95-3.49h-.036ZM-207.702-286.04c0,1.211.684,2.026,1.715,2.026.972,0,1.859-.743,1.859-1.463,0-1.728-.635-2.891-1.823-2.891-1.043,0-1.751.983-1.751,2.327Z" style="fill: #231815;"/>
      <path d="M-197.54-284.254c-.492.624-1.188.996-2.063.996-1.535,0-2.483-1.199-2.483-2.723,0-1.644,1.08-3.154,2.843-3.154,1.679,0,2.747,1.463,2.747,3.754,0,2.986-1.511,5.062-3.814,5.421-.42.072-.804.096-1.067.084v-.827c.251.023.54-.013.923-.061,1.511-.216,2.65-1.438,2.95-3.49h-.036ZM-201.078-286.04c0,1.211.684,2.026,1.715,2.026.972,0,1.859-.743,1.859-1.463,0-1.728-.635-2.891-1.823-2.891-1.043,0-1.751.983-1.751,2.327Z" style="fill: #231815;"/>
      <path d="M-190.916-284.254c-.492.624-1.188.996-2.063.996-1.535,0-2.483-1.199-2.483-2.723,0-1.644,1.08-3.154,2.843-3.154,1.679,0,2.747,1.463,2.747,3.754,0,2.986-1.511,5.062-3.814,5.421-.42.072-.804.096-1.067.084v-.827c.251.023.54-.013.923-.061,1.511-.216,2.65-1.438,2.95-3.49h-.036ZM-194.454-286.04c0,1.211.684,2.026,1.715,2.026.972,0,1.859-.743,1.859-1.463,0-1.728-.635-2.891-1.823-2.891-1.043,0-1.751.983-1.751,2.327Z" style="fill: #231815;"/>
    </g>
    <g id="IDtype:numeric">
      <path d="M-326.98-274.147h.995v9.139h-.995v-9.139Z" style="fill: #231815;"/>
      <path d="M-323.933-274.027c.671-.107,1.451-.191,2.303-.191,3.67,0,4.725,2.171,4.725,4.414,0,1.451-.384,2.686-1.247,3.586-.804.827-2.135,1.283-3.802,1.283-.756,0-1.403-.024-1.979-.097v-8.995ZM-322.938-265.8c.3.049.732.061,1.164.061,2.471,0,3.826-1.403,3.826-4.018,0-2.375-1.271-3.658-3.646-3.658-.576,0-1.032.06-1.344.12v7.495Z" style="fill: #231815;"/>
      <path d="M-315.161-272.732l.984-.336v1.523h1.691v.779h-1.691v3.778c0,.827.251,1.283.887,1.283.3,0,.504-.036.672-.097l.06.768c-.216.097-.552.156-.972.156-1.583,0-1.631-1.439-1.631-2.135v-3.754h-1.007v-.779h1.007v-1.188Z" style="fill: #231815;"/>
      <path d="M-306.248-271.544l-1.739,4.629c-.78,2.123-1.332,3.347-2.147,4.114-.552.504-1.091.707-1.331.768l-.276-.84c1.523-.563,2.111-2.219,2.111-2.351,0-.06-.024-.156-.072-.276l-2.314-6.044h1.091l1.427,3.97c.168.455.312.972.42,1.367h.036c.108-.396.264-.888.42-1.392l1.319-3.945h1.055Z" style="fill: #231815;"/>
      <path d="M-304.205-270.44c.456-.804,1.211-1.26,2.231-1.26,1.547,0,2.663,1.331,2.663,3.334,0,2.399-1.403,3.502-2.843,3.502-.863,0-1.583-.396-1.967-1.043h-.024v3.574h-.996v-7.112c0-.852-.024-1.512-.048-2.111h.899l.06,1.116h.024ZM-304.145-267.61c0,1.271.947,1.943,1.835,1.943,1.283,0,1.991-1.104,1.991-2.663,0-1.355-.684-2.555-1.955-2.555-1.116,0-1.871,1.08-1.871,2.027v1.247Z" style="fill: #231815;"/>
      <path d="M-293.179-265.283c-.372.18-1.055.407-2.051.407-1.907,0-3.046-1.343-3.046-3.298,0-2.051,1.151-3.526,2.915-3.526,2.015,0,2.531,1.847,2.531,2.986,0,.228-.012.396-.024.552h-4.449c.012,1.811,1.043,2.495,2.219,2.495.815,0,1.307-.168,1.715-.336l.192.72ZM-293.815-268.905c.012-.888-.359-2.039-1.643-2.039-1.199,0-1.727,1.14-1.823,2.039h3.466Z" style="fill: #231815;"/>
      <path d="M-291.604-270.524c0-.444.288-.768.708-.768.432,0,.708.323.708.768,0,.432-.276.768-.708.768-.456,0-.708-.372-.708-.768ZM-291.604-265.619c0-.444.288-.768.708-.768.432,0,.708.323.708.768,0,.42-.276.755-.708.755-.456,0-.708-.359-.708-.755Z" style="fill: #231815;"/>
      <path d="M-275.108-265.008h-.995v-3.862c0-1.067-.384-2.003-1.523-2.003-.852,0-1.715.72-1.715,1.859v4.006h-.996v-4.857c0-.672-.024-1.163-.048-1.691h.887l.06,1.067h.024c.324-.635,1.08-1.211,2.099-1.211.815,0,2.207.492,2.207,2.711v3.981Z" style="fill: #231815;"/>
      <path d="M-268.053-266.747c0,.672.036,1.235.06,1.739h-.899l-.048-1.031h-.036c-.3.516-.972,1.175-2.087,1.175-.983,0-2.147-.563-2.147-2.818v-3.861h.996v3.682c0,1.271.372,2.159,1.463,2.159.779,0,1.703-.624,1.703-1.775v-4.065h.995v4.797Z" style="fill: #231815;"/>
      <path d="M-257.183-265.008h-.984v-3.778c0-1.271-.456-2.087-1.439-2.087-.804,0-1.535.756-1.535,1.752v4.113h-.983v-4.029c0-1.044-.444-1.836-1.367-1.836-.852,0-1.607.84-1.607,1.859v4.006h-.983v-4.857c0-.672-.024-1.151-.048-1.691h.875l.06,1.056h.036c.36-.636.959-1.199,1.991-1.199.852,0,1.511.527,1.787,1.308h.024c.432-.78,1.091-1.308,2.099-1.308.804,0,2.075.516,2.075,2.759v3.934Z" style="fill: #231815;"/>
      <path d="M-250.617-265.283c-.372.18-1.055.407-2.051.407-1.907,0-3.046-1.343-3.046-3.298,0-2.051,1.151-3.526,2.915-3.526,2.015,0,2.531,1.847,2.531,2.986,0,.228-.012.396-.024.552h-4.449c.012,1.811,1.043,2.495,2.219,2.495.815,0,1.307-.168,1.715-.336l.192.72ZM-251.252-268.905c.012-.888-.359-2.039-1.643-2.039-1.199,0-1.727,1.14-1.823,2.039h3.466Z" style="fill: #231815;"/>
      <path d="M-245.792-270.705c-.108-.012-.216-.023-.36-.023-1.079,0-1.631,1.067-1.631,2.171v3.55h-.996v-4.581c0-.696-.012-1.332-.048-1.955h.875l.048,1.259h.036c.288-.815.971-1.403,1.775-1.403.108,0,.192.024.3.036v.947Z" style="fill: #231815;"/>
      <path d="M-244.135-272.695c-.384,0-.647-.3-.647-.684,0-.372.276-.672.66-.672.396,0,.647.3.647.672,0,.42-.276.684-.66.684ZM-243.631-265.008h-.996v-6.536h.996v6.536Z" style="fill: #231815;"/>
      <path d="M-237.237-265.248c-.288.145-.936.372-1.775.372-1.871,0-3.106-1.331-3.106-3.334,0-2.015,1.332-3.49,3.346-3.49.731,0,1.319.216,1.571.348l-.252.804c-.276-.156-.708-.336-1.343-.336-1.511,0-2.303,1.212-2.303,2.615,0,1.583.947,2.578,2.267,2.578.648,0,1.092-.18,1.416-.324l.18.768Z" style="fill: #231815;"/>
    </g>
    <g id="IDlength:10">
      <path d="M-326.98-259.147h.995v9.139h-.995v-9.139Z" style="fill: #231815;"/>
      <path d="M-323.933-259.027c.671-.107,1.451-.191,2.303-.191,3.67,0,4.725,2.171,4.725,4.414,0,1.451-.384,2.686-1.247,3.586-.804.827-2.135,1.283-3.802,1.283-.756,0-1.403-.024-1.979-.097v-8.995ZM-322.938-250.8c.3.049.732.061,1.164.061,2.471,0,3.826-1.403,3.826-4.018,0-2.375-1.271-3.658-3.646-3.658-.576,0-1.032.06-1.344.12v7.495Z" style="fill: #231815;"/>
      <path d="M-314.429-250.008h-.996v-9.595h.996v9.595Z" style="fill: #231815;"/>
      <path d="M-307.82-250.283c-.372.18-1.055.407-2.051.407-1.907,0-3.046-1.343-3.046-3.298,0-2.051,1.151-3.526,2.915-3.526,2.015,0,2.531,1.847,2.531,2.986,0,.228-.012.396-.024.552h-4.449c.012,1.811,1.043,2.495,2.219,2.495.815,0,1.307-.168,1.715-.336l.192.72ZM-308.456-253.905c.012-.888-.359-2.039-1.643-2.039-1.199,0-1.727,1.14-1.823,2.039h3.466Z" style="fill: #231815;"/>
      <path d="M-300.752-250.008h-.995v-3.862c0-1.067-.384-2.003-1.523-2.003-.852,0-1.715.72-1.715,1.859v4.006h-.996v-4.857c0-.672-.024-1.163-.048-1.691h.888l.06,1.067h.024c.324-.635,1.08-1.211,2.099-1.211.815,0,2.207.492,2.207,2.711v3.981Z" style="fill: #231815;"/>
      <path d="M-293.504-256.557c-.036.468-.06.996-.06,1.8v3.813c0,1.14-.024,3.754-3.118,3.754-.744,0-1.559-.18-2.051-.516l.264-.779c.42.252,1.056.491,1.835.491,1.2,0,2.075-.636,2.075-2.362v-.779h-.024c-.336.611-1.032,1.115-2.027,1.115-1.56,0-2.675-1.38-2.675-3.215,0-2.267,1.416-3.466,2.831-3.466,1.115,0,1.703.6,1.979,1.128h.024l.048-.984h.899ZM-294.572-254.037c0-1.14-.828-1.859-1.739-1.859-1.151,0-1.955,1.02-1.955,2.603,0,1.392.672,2.482,1.943,2.482.744,0,1.751-.563,1.751-1.919v-1.307Z" style="fill: #231815;"/>
      <path d="M-291.33-257.732l.984-.336v1.523h1.691v.779h-1.691v3.778c0,.827.251,1.283.887,1.283.3,0,.504-.036.672-.097l.06.768c-.216.097-.552.156-.972.156-1.583,0-1.631-1.439-1.631-2.135v-3.754h-1.007v-.779h1.007v-1.188Z" style="fill: #231815;"/>
      <path d="M-282.117-250.008h-.995v-3.862c0-1.067-.384-1.99-1.511-1.99-.768,0-1.727.636-1.727,1.835v4.018h-.996v-9.595h.996v4.065h.024c.432-.72,1.223-1.163,2.027-1.163s2.183.492,2.183,2.711v3.981Z" style="fill: #231815;"/>
      <path d="M-280.445-255.524c0-.444.288-.768.708-.768.432,0,.708.323.708.768,0,.432-.276.768-.708.768-.456,0-.708-.372-.708-.768ZM-280.445-250.619c0-.444.288-.768.708-.768.432,0,.708.323.708.768,0,.42-.276.755-.708.755-.456,0-.708-.359-.708-.755Z" style="fill: #231815;"/>
      <path d="M-267.043-250.008v-8.048h-.024l-1.475.852-.24-.743,1.859-1.044h.852v8.983h-.972Z" style="fill: #231815;"/>
      <path d="M-263.07-254.47c0-3.142,1.224-4.665,2.903-4.665,1.703,0,2.746,1.607,2.746,4.546,0,3.118-1.091,4.725-2.878,4.725-1.631,0-2.771-1.606-2.771-4.605ZM-258.429-254.541c0-2.243-.54-3.79-1.799-3.79-1.067,0-1.823,1.427-1.823,3.79s.66,3.861,1.787,3.861c1.332,0,1.835-1.727,1.835-3.861Z" style="fill: #231815;"/>
    </g>
    <g id="MaxID:999">
      <path d="M-318.357-235.008h-.983l-.228-4.113c-.072-1.308-.167-2.999-.156-3.935h-.036c-.3,1.031-.671,2.159-1.115,3.431l-1.631,4.581h-.732l-1.523-4.485c-.444-1.319-.792-2.471-1.043-3.526h-.036c-.024,1.115-.096,2.627-.18,4.03l-.252,4.018h-.947l.635-9.139h1.224l1.607,4.642c.384,1.139.684,2.11.923,3.058h.036c.228-.923.54-1.883.948-3.058l1.667-4.642h1.247l.576,9.139Z" style="fill: #231815;"/>
      <path d="M-312.319-236.567c0,.54.012,1.104.096,1.56h-.911l-.096-.84h-.036c-.335.516-1.007.983-1.931.983-1.248,0-1.907-.911-1.907-1.858,0-1.571,1.368-2.423,3.79-2.411,0-.552,0-1.799-1.487-1.799-.563,0-1.151.156-1.595.468l-.24-.684c.528-.348,1.26-.552,1.991-.552,1.847,0,2.327,1.308,2.327,2.603v2.53ZM-313.302-238.402c-1.235,0-2.783.181-2.783,1.56,0,.84.528,1.211,1.127,1.211.972,0,1.655-.743,1.655-1.535v-1.235Z" style="fill: #231815;"/>
      <path d="M-305.707-241.544l-2.159,3.166,2.219,3.37h-1.14l-.983-1.523c-.24-.396-.456-.755-.695-1.175h-.024c-.204.407-.444.768-.696,1.175l-.959,1.523h-1.104l2.243-3.334-2.135-3.202h1.116l.947,1.451c.24.371.444.707.66,1.091h.036c.204-.384.432-.743.66-1.091l.923-1.451h1.091Z" style="fill: #231815;"/>
      <path d="M-304.457-244.147h.996v9.139h-.996v-9.139Z" style="fill: #231815;"/>
      <path d="M-301.409-244.027c.671-.107,1.451-.191,2.303-.191,3.67,0,4.725,2.171,4.725,4.414,0,1.451-.384,2.686-1.247,3.586-.804.827-2.135,1.283-3.802,1.283-.756,0-1.403-.024-1.979-.097v-8.995ZM-300.413-235.8c.3.049.731.061,1.163.061,2.471,0,3.826-1.403,3.826-4.018,0-2.375-1.271-3.658-3.646-3.658-.575,0-1.031.06-1.343.12v7.495Z" style="fill: #231815;"/>
      <path d="M-293.165-240.524c0-.444.288-.768.708-.768.432,0,.708.323.708.768,0,.432-.276.768-.708.768-.456,0-.708-.372-.708-.768ZM-293.165-235.619c0-.444.288-.768.708-.768.432,0,.708.323.708.768,0,.42-.276.755-.708.755-.456,0-.708-.359-.708-.755Z" style="fill: #231815;"/>
      <path d="M-277.771-239.254c-.492.624-1.188.996-2.063.996-1.535,0-2.483-1.199-2.483-2.723,0-1.644,1.08-3.154,2.843-3.154,1.679,0,2.747,1.463,2.747,3.754,0,2.986-1.511,5.062-3.814,5.421-.42.072-.804.096-1.067.084v-.827c.251.023.54-.013.923-.061,1.511-.216,2.65-1.438,2.95-3.49h-.036ZM-281.31-241.04c0,1.211.684,2.026,1.715,2.026.972,0,1.859-.743,1.859-1.463,0-1.728-.635-2.891-1.823-2.891-1.043,0-1.751.983-1.751,2.327Z" style="fill: #231815;"/>
      <path d="M-271.147-239.254c-.492.624-1.188.996-2.063.996-1.535,0-2.483-1.199-2.483-2.723,0-1.644,1.08-3.154,2.843-3.154,1.679,0,2.747,1.463,2.747,3.754,0,2.986-1.511,5.062-3.814,5.421-.42.072-.804.096-1.067.084v-.827c.251.023.54-.013.923-.061,1.511-.216,2.65-1.438,2.95-3.49h-.036ZM-274.686-241.04c0,1.211.684,2.026,1.715,2.026.972,0,1.859-.743,1.859-1.463,0-1.728-.635-2.891-1.823-2.891-1.043,0-1.751.983-1.751,2.327Z" style="fill: #231815;"/>
      <path d="M-264.523-239.254c-.492.624-1.188.996-2.063.996-1.535,0-2.483-1.199-2.483-2.723,0-1.644,1.08-3.154,2.843-3.154,1.679,0,2.747,1.463,2.747,3.754,0,2.986-1.511,5.062-3.814,5.421-.42.072-.804.096-1.067.084v-.827c.251.023.54-.013.923-.061,1.511-.216,2.65-1.438,2.95-3.49h-.036ZM-268.062-241.04c0,1.211.684,2.026,1.715,2.026.972,0,1.859-.743,1.859-1.463,0-1.728-.635-2.891-1.823-2.891-1.043,0-1.751.983-1.751,2.327Z" style="fill: #231815;"/>
    </g>
    <g id="Elements:34">
      <path d="M-322.159-220.008h-4.821v-9.139h4.617v.839h-3.622v3.095h3.406v.827h-3.406v3.538h3.826v.84Z" style="fill: #231815;"/>
      <path d="M-319.721-220.008h-.996v-9.595h.996v9.595Z" style="fill: #231815;"/>
      <path d="M-313.112-220.283c-.372.18-1.055.407-2.051.407-1.907,0-3.046-1.343-3.046-3.298,0-2.051,1.151-3.526,2.915-3.526,2.015,0,2.531,1.847,2.531,2.986,0,.228-.012.396-.024.552h-4.449c.012,1.811,1.043,2.495,2.219,2.495.815,0,1.307-.168,1.715-.336l.192.72ZM-313.748-223.905c.012-.888-.359-2.039-1.643-2.039-1.199,0-1.727,1.14-1.823,2.039h3.466Z" style="fill: #231815;"/>
      <path d="M-302.374-220.008h-.984v-3.778c0-1.271-.456-2.087-1.439-2.087-.804,0-1.535.756-1.535,1.752v4.113h-.983v-4.029c0-1.044-.444-1.836-1.367-1.836-.852,0-1.607.84-1.607,1.859v4.006h-.983v-4.857c0-.672-.024-1.151-.048-1.691h.875l.06,1.056h.036c.36-.636.959-1.199,1.991-1.199.852,0,1.511.527,1.787,1.308h.024c.432-.78,1.091-1.308,2.099-1.308.804,0,2.075.516,2.075,2.759v3.934Z" style="fill: #231815;"/>
      <path d="M-295.808-220.283c-.372.18-1.055.407-2.051.407-1.907,0-3.046-1.343-3.046-3.298,0-2.051,1.151-3.526,2.915-3.526,2.015,0,2.531,1.847,2.531,2.986,0,.228-.012.396-.024.552h-4.449c.012,1.811,1.043,2.495,2.219,2.495.815,0,1.307-.168,1.715-.336l.192.72ZM-296.444-223.905c.012-.888-.359-2.039-1.643-2.039-1.199,0-1.727,1.14-1.823,2.039h3.466Z" style="fill: #231815;"/>
      <path d="M-288.741-220.008h-.995v-3.862c0-1.067-.384-2.003-1.523-2.003-.852,0-1.715.72-1.715,1.859v4.006h-.996v-4.857c0-.672-.024-1.163-.048-1.691h.888l.06,1.067h.024c.324-.635,1.08-1.211,2.099-1.211.815,0,2.207.492,2.207,2.711v3.981Z" style="fill: #231815;"/>
      <path d="M-286.542-227.732l.984-.336v1.523h1.691v.779h-1.691v3.778c0,.827.251,1.283.887,1.283.3,0,.504-.036.672-.097l.06.768c-.216.097-.552.156-.972.156-1.583,0-1.631-1.439-1.631-2.135v-3.754h-1.007v-.779h1.007v-1.188Z" style="fill: #231815;"/>
      <path d="M-279.499-225.549c-.24-.156-.684-.384-1.271-.384-.72,0-1.104.443-1.104.972,0,.563.372.827,1.211,1.188,1.055.432,1.667.983,1.667,1.967,0,1.163-.887,1.931-2.314,1.931-.648,0-1.271-.18-1.715-.443l.276-.768c.348.203.912.443,1.475.443.875,0,1.308-.468,1.308-1.056,0-.611-.348-.947-1.211-1.295-1.104-.443-1.667-1.056-1.667-1.847,0-1.02.815-1.859,2.135-1.859.624,0,1.151.18,1.499.396l-.288.756Z" style="fill: #231815;"/>
      <path d="M-271.688-225.705c-.108-.012-.216-.023-.36-.023-1.079,0-1.631,1.067-1.631,2.171v3.55h-.996v-4.581c0-.696-.012-1.332-.048-1.955h.875l.048,1.259h.036c.288-.815.971-1.403,1.775-1.403.108,0,.192.024.3.036v.947Z" style="fill: #231815;"/>
      <path d="M-265.893-220.283c-.372.18-1.055.407-2.051.407-1.907,0-3.046-1.343-3.046-3.298,0-2.051,1.151-3.526,2.915-3.526,2.015,0,2.531,1.847,2.531,2.986,0,.228-.012.396-.024.552h-4.449c.012,1.811,1.043,2.495,2.219,2.495.815,0,1.307-.168,1.715-.336l.192.72ZM-266.528-223.905c.012-.888-.359-2.039-1.643-2.039-1.199,0-1.727,1.14-1.823,2.039h3.466Z" style="fill: #231815;"/>
      <path d="M-258.729-226.557c-.024.517-.048,1.067-.048,1.8v7.424h-.996v-3.67h-.036c-.324.623-1.031,1.139-2.051,1.139-1.475,0-2.663-1.307-2.663-3.31,0-2.459,1.511-3.526,2.854-3.526.959,0,1.619.492,1.931,1.128h.036l.036-.984h.936ZM-259.772-223.954c0-1.079-.756-1.931-1.763-1.931-1.235,0-1.967,1.104-1.967,2.639,0,1.367.6,2.566,1.931,2.566,1.175,0,1.799-1.115,1.799-1.931v-1.344Z" style="fill: #231815;"/>
      <path d="M-251.685-221.747c0,.672.036,1.235.06,1.739h-.899l-.048-1.031h-.036c-.3.516-.972,1.175-2.087,1.175-.983,0-2.147-.563-2.147-2.818v-3.861h.996v3.682c0,1.271.372,2.159,1.463,2.159.779,0,1.703-.624,1.703-1.775v-4.065h.995v4.797Z" style="fill: #231815;"/>
      <path d="M-249.223-227.695c-.384,0-.647-.3-.647-.684,0-.372.276-.672.66-.672.396,0,.647.3.647.672,0,.42-.276.684-.66.684ZM-248.719-220.008h-.996v-6.536h.996v6.536Z" style="fill: #231815;"/>
      <path d="M-243.752-225.705c-.108-.012-.216-.023-.36-.023-1.079,0-1.631,1.067-1.631,2.171v3.55h-.996v-4.581c0-.696-.012-1.332-.048-1.955h.875l.048,1.259h.036c.288-.815.971-1.403,1.775-1.403.108,0,.192.024.3.036v.947Z" style="fill: #231815;"/>
      <path d="M-237.957-220.283c-.372.18-1.055.407-2.051.407-1.907,0-3.046-1.343-3.046-3.298,0-2.051,1.151-3.526,2.915-3.526,2.015,0,2.531,1.847,2.531,2.986,0,.228-.012.396-.024.552h-4.449c.012,1.811,1.043,2.495,2.219,2.495.815,0,1.307-.168,1.715-.336l.192.72ZM-238.593-223.905c.012-.888-.359-2.039-1.643-2.039-1.199,0-1.727,1.14-1.823,2.039h3.466Z" style="fill: #231815;"/>
      <path d="M-230.841-221.627c0,.527.024,1.176.048,1.619h-.888l-.048-1.115h-.036c-.335.684-1.079,1.259-2.135,1.259-1.511,0-2.687-1.307-2.687-3.322,0-2.206,1.295-3.502,2.818-3.502.959,0,1.607.468,1.907,1.008h.024v-3.922h.996v7.976ZM-231.837-223.93c0-1.308-.923-1.955-1.763-1.955-1.235,0-1.967,1.151-1.967,2.65,0,1.38.647,2.555,1.931,2.555,1.079,0,1.799-.947,1.799-1.99v-1.26Z" style="fill: #231815;"/>
      <path d="M-229.134-225.524c0-.444.288-.768.708-.768.432,0,.708.323.708.768,0,.432-.276.768-.708.768-.456,0-.708-.372-.708-.768ZM-229.134-220.619c0-.444.288-.768.708-.768.432,0,.708.323.708.768,0,.42-.276.755-.708.755-.456,0-.708-.359-.708-.755Z" style="fill: #231815;"/>
      <path d="M-215.084-224.865c1.055.18,1.955,1.031,1.955,2.327,0,1.427-1.031,2.674-3.046,2.674-.899,0-1.715-.287-2.123-.575l.3-.768c.324.216,1.043.54,1.835.54,1.511,0,2.003-1.056,2.003-1.884,0-1.319-1.115-1.919-2.291-1.919h-.587v-.743h.587c.864,0,1.979-.54,1.979-1.667,0-.779-.468-1.451-1.547-1.451-.66,0-1.283.323-1.643.588l-.3-.732c.432-.335,1.271-.671,2.135-.671,1.643,0,2.375,1.043,2.375,2.122,0,.924-.587,1.752-1.631,2.123v.036Z" style="fill: #231815;"/>
      <path d="M-207.129-220.008h-.948v-2.519h-3.922v-.636l3.838-5.829h1.032v5.697h1.223v.768h-1.223v2.519ZM-210.991-223.294h2.914v-3.19c0-.491.024-.972.048-1.439h-.048c-.276.552-.492.936-.72,1.344l-2.194,3.262v.024Z" style="fill: #231815;"/>
    </g>
  </g>
</svg>